<svg xmlns="http://www.w3.org/2000/svg" xmlns:xlink="http://www.w3.org/1999/xlink" width="1944pt" height="553pt" viewBox="0.00 0.00 1944.00 553.00">
<g id="graph0" class="graph" transform="scale(1 1) rotate(0) translate(4 549)">
<polygon fill="white" stroke="none" points="-4,4 -4,-549 1939.94,-549 1939.94,4 -4,4"/>
<g id="clust1" class="cluster">
<title>cluster__gan_parser</title>
<polygon fill="none" stroke="black" stroke-dasharray="1,5" points="8,-8 8,-537 1927.94,-537 1927.94,-8 8,-8"/>
<text xml:space="preserve" text-anchor="middle" x="967.97" y="-520.4" font-family="Times,serif" font-size="14.00">GanParser</text>
</g>
<g id="clust2" class="cluster">
<title>cluster__gan_data_section</title>
<polygon fill="none" stroke="black" stroke-dasharray="1,5" points="328.6,-16 328.6,-242 1919.94,-242 1919.94,-16 328.6,-16"/>
<text xml:space="preserve" text-anchor="middle" x="1124.27" y="-225.4" font-family="Times,serif" font-size="14.00">GanParser::GanDataSection</text>
</g>
<g id="clust3" class="cluster">
<title>cluster__animation_frame</title>
<polygon fill="none" stroke="black" stroke-dasharray="1,5" points="953.5,-47 953.5,-164 1230.77,-164 1230.77,-47 953.5,-47"/>
<text xml:space="preserve" text-anchor="middle" x="1092.14" y="-147.4" font-family="Times,serif" font-size="14.00">GanParser::GanDataSection::AnimationFrame</text>
</g>
<g id="clust4" class="cluster">
<title>cluster__animation_set</title>
<polygon fill="none" stroke="black" stroke-dasharray="1,5" points="654.66,-24 654.66,-209 917.5,-209 917.5,-24 654.66,-24"/>
<text xml:space="preserve" text-anchor="middle" x="786.08" y="-192.4" font-family="Times,serif" font-size="14.00">GanParser::GanDataSection::AnimationSet</text>
</g>
<g id="clust5" class="cluster">
<title>cluster__frame_entry</title>
<polygon fill="none" stroke="black" stroke-dasharray="1,5" points="1266.77,-24 1266.77,-187 1911.94,-187 1911.94,-24 1266.77,-24"/>
<text xml:space="preserve" text-anchor="middle" x="1589.35" y="-170.4" font-family="Times,serif" font-size="14.00">GanParser::GanDataSection::FrameEntry</text>
</g>
<g id="clust6" class="cluster">
<title>cluster__gan_header</title>
<polygon fill="none" stroke="black" stroke-dasharray="1,5" points="314.15,-250 314.15,-504 634.66,-504 634.66,-250 314.15,-250"/>
<text xml:space="preserve" text-anchor="middle" x="474.4" y="-487.4" font-family="Times,serif" font-size="14.00">GanParser::GanHeader</text>
</g>
<!-- gan_parser__seq -->
<g id="node1" class="node">
<title>gan_parser__seq</title>
<polygon fill="#e0ffe0" stroke="none" points="24,-273.4 24,-296.2 49.45,-296.2 49.45,-273.4 24,-273.4"/>
<polygon fill="none" stroke="black" points="24,-273.4 24,-296.2 49.45,-296.2 49.45,-273.4 24,-273.4"/>
<text xml:space="preserve" text-anchor="start" x="27" y="-280.6" font-family="Times,serif" font-size="14.00">pos</text>
<polygon fill="#e0ffe0" stroke="none" points="49.45,-273.4 49.45,-296.2 77.21,-296.2 77.21,-273.4 49.45,-273.4"/>
<polygon fill="none" stroke="black" points="49.45,-273.4 49.45,-296.2 77.21,-296.2 77.21,-273.4 49.45,-273.4"/>
<text xml:space="preserve" text-anchor="start" x="52.45" y="-280.6" font-family="Times,serif" font-size="14.00">size</text>
<polygon fill="#e0ffe0" stroke="none" points="77.21,-273.4 77.21,-296.2 174.96,-296.2 174.96,-273.4 77.21,-273.4"/>
<polygon fill="none" stroke="black" points="77.21,-273.4 77.21,-296.2 174.96,-296.2 174.96,-273.4 77.21,-273.4"/>
<text xml:space="preserve" text-anchor="start" x="114.03" y="-280.6" font-family="Times,serif" font-size="14.00">type</text>
<polygon fill="#e0ffe0" stroke="none" points="174.96,-273.4 174.96,-296.2 278.15,-296.2 278.15,-273.4 174.96,-273.4"/>
<polygon fill="none" stroke="black" points="174.96,-273.4 174.96,-296.2 278.15,-296.2 278.15,-273.4 174.96,-273.4"/>
<text xml:space="preserve" text-anchor="start" x="221.11" y="-280.6" font-family="Times,serif" font-size="14.00">id</text>
<polygon fill="none" stroke="black" points="24,-250.6 24,-273.4 49.45,-273.4 49.45,-250.6 24,-250.6"/>
<text xml:space="preserve" text-anchor="start" x="33.22" y="-257.8" font-family="Times,serif" font-size="14.00">0</text>
<polygon fill="none" stroke="black" points="49.45,-250.6 49.45,-273.4 77.21,-273.4 77.21,-250.6 49.45,-250.6"/>
<text xml:space="preserve" text-anchor="start" x="58.08" y="-257.8" font-family="Times,serif" font-size="14.00">...</text>
<polygon fill="none" stroke="black" points="77.21,-250.6 77.21,-273.4 174.96,-273.4 174.96,-250.6 77.21,-250.6"/>
<text xml:space="preserve" text-anchor="start" x="94.22" y="-257.8" font-family="Times,serif" font-size="14.00">GanHeader</text>
<polygon fill="none" stroke="black" points="174.96,-250.6 174.96,-273.4 278.15,-273.4 278.15,-250.6 174.96,-250.6"/>
<text xml:space="preserve" text-anchor="start" x="194.29" y="-257.8" font-family="Times,serif" font-size="14.00">gan_header</text>
<polygon fill="none" stroke="black" points="24,-227.8 24,-250.6 49.45,-250.6 49.45,-227.8 24,-227.8"/>
<text xml:space="preserve" text-anchor="start" x="31.47" y="-235" font-family="Times,serif" font-size="14.00">...</text>
<polygon fill="none" stroke="black" points="49.45,-227.8 49.45,-250.6 77.21,-250.6 77.21,-227.8 49.45,-227.8"/>
<text xml:space="preserve" text-anchor="start" x="58.08" y="-235" font-family="Times,serif" font-size="14.00">...</text>
<polygon fill="none" stroke="black" points="77.21,-227.8 77.21,-250.6 174.96,-250.6 174.96,-227.8 77.21,-227.8"/>
<text xml:space="preserve" text-anchor="start" x="80.21" y="-235" font-family="Times,serif" font-size="14.00">GanDataSection</text>
<polygon fill="none" stroke="black" points="174.96,-227.8 174.96,-250.6 278.15,-250.6 278.15,-227.8 174.96,-227.8"/>
<text xml:space="preserve" text-anchor="start" x="177.96" y="-235" font-family="Times,serif" font-size="14.00">gan_data_section</text>
</g>
<!-- gan_data_section__seq -->
<g id="node2" class="node">
<title>gan_data_section__seq</title>
<polygon fill="#e0ffe0" stroke="none" points="344.6,-182.6 344.6,-205.4 370.05,-205.4 370.05,-182.6 344.6,-182.6"/>
<polygon fill="none" stroke="black" points="344.6,-182.6 344.6,-205.4 370.05,-205.4 370.05,-182.6 344.6,-182.6"/>
<text xml:space="preserve" text-anchor="start" x="347.6" y="-189.8" font-family="Times,serif" font-size="14.00">pos</text>
<polygon fill="#e0ffe0" stroke="none" points="370.05,-182.6 370.05,-205.4 397.82,-205.4 397.82,-182.6 370.05,-182.6"/>
<polygon fill="none" stroke="black" points="370.05,-182.6 370.05,-205.4 397.82,-205.4 397.82,-182.6 370.05,-182.6"/>
<text xml:space="preserve" text-anchor="start" x="373.05" y="-189.8" font-family="Times,serif" font-size="14.00">size</text>
<polygon fill="#e0ffe0" stroke="none" points="397.82,-182.6 397.82,-205.4 481.59,-205.4 481.59,-182.6 397.82,-182.6"/>
<polygon fill="none" stroke="black" points="397.82,-182.6 397.82,-205.4 481.59,-205.4 481.59,-182.6 397.82,-182.6"/>
<text xml:space="preserve" text-anchor="start" x="427.65" y="-189.8" font-family="Times,serif" font-size="14.00">type</text>
<polygon fill="#e0ffe0" stroke="none" points="481.59,-182.6 481.59,-205.4 604.2,-205.4 604.2,-182.6 481.59,-182.6"/>
<polygon fill="none" stroke="black" points="481.59,-182.6 481.59,-205.4 604.2,-205.4 604.2,-182.6 481.59,-182.6"/>
<text xml:space="preserve" text-anchor="start" x="537.45" y="-189.8" font-family="Times,serif" font-size="14.00">id</text>
<polygon fill="none" stroke="black" points="344.6,-159.8 344.6,-182.6 370.05,-182.6 370.05,-159.8 344.6,-159.8"/>
<text xml:space="preserve" text-anchor="start" x="353.83" y="-167" font-family="Times,serif" font-size="14.00">0</text>
<polygon fill="none" stroke="black" points="370.05,-159.8 370.05,-182.6 397.82,-182.6 397.82,-159.8 370.05,-159.8"/>
<text xml:space="preserve" text-anchor="start" x="380.43" y="-167" font-family="Times,serif" font-size="14.00">4</text>
<polygon fill="none" stroke="black" points="397.82,-159.8 397.82,-182.6 481.59,-182.6 481.59,-159.8 397.82,-159.8"/>
<text xml:space="preserve" text-anchor="start" x="427.65" y="-167" font-family="Times,serif" font-size="14.00">u4le</text>
<polygon fill="none" stroke="black" points="481.59,-159.8 481.59,-182.6 604.2,-182.6 604.2,-159.8 481.59,-159.8"/>
<text xml:space="preserve" text-anchor="start" x="484.59" y="-167" font-family="Times,serif" font-size="14.00">data_section_marker</text>
<polygon fill="none" stroke="black" points="344.6,-137 344.6,-159.8 604.2,-159.8 604.2,-137 344.6,-137"/>
<text xml:space="preserve" text-anchor="start" x="409.08" y="-144.2" font-family="Times,serif" font-size="14.00">must be equal to 20000</text>
<polygon fill="none" stroke="black" points="344.6,-114.2 344.6,-137 370.05,-137 370.05,-114.2 344.6,-114.2"/>
<text xml:space="preserve" text-anchor="start" x="353.83" y="-121.4" font-family="Times,serif" font-size="14.00">4</text>
<polygon fill="none" stroke="black" points="370.05,-114.2 370.05,-137 397.82,-137 397.82,-114.2 370.05,-114.2"/>
<text xml:space="preserve" text-anchor="start" x="380.43" y="-121.4" font-family="Times,serif" font-size="14.00">4</text>
<polygon fill="none" stroke="black" points="397.82,-114.2 397.82,-137 481.59,-137 481.59,-114.2 397.82,-114.2"/>
<text xml:space="preserve" text-anchor="start" x="427.65" y="-121.4" font-family="Times,serif" font-size="14.00">u4le</text>
<polygon fill="none" stroke="black" points="481.59,-114.2 481.59,-137 604.2,-137 604.2,-114.2 481.59,-114.2"/>
<text xml:space="preserve" text-anchor="start" x="516.45" y="-121.4" font-family="Times,serif" font-size="14.00">num_sets</text>
<polygon fill="none" stroke="black" points="344.6,-91.4 344.6,-114.2 370.05,-114.2 370.05,-91.4 344.6,-91.4"/>
<text xml:space="preserve" text-anchor="start" x="353.83" y="-98.6" font-family="Times,serif" font-size="14.00">8</text>
<polygon fill="none" stroke="black" points="370.05,-91.4 370.05,-114.2 397.82,-114.2 397.82,-91.4 370.05,-91.4"/>
<text xml:space="preserve" text-anchor="start" x="378.68" y="-98.6" font-family="Times,serif" font-size="14.00">...</text>
<polygon fill="none" stroke="black" points="397.82,-91.4 397.82,-114.2 481.59,-114.2 481.59,-91.4 397.82,-91.4"/>
<text xml:space="preserve" text-anchor="start" x="400.82" y="-98.6" font-family="Times,serif" font-size="14.00">AnimationSet</text>
<polygon fill="none" stroke="black" points="481.59,-91.4 481.59,-114.2 604.2,-114.2 604.2,-91.4 481.59,-91.4"/>
<text xml:space="preserve" text-anchor="start" x="532.4" y="-98.6" font-family="Times,serif" font-size="14.00">sets</text>
<polygon fill="none" stroke="black" points="344.6,-68.6 344.6,-91.4 604.2,-91.4 604.2,-68.6 344.6,-68.6"/>
<text xml:space="preserve" text-anchor="start" x="412.2" y="-75.8" font-family="Times,serif" font-size="14.00">repeat num_sets times</text>
</g>
<!-- gan_parser__seq&#45;&gt;gan_data_section__seq -->
<g id="edge2" class="edge">
<title>gan_parser__seq:gan_data_section_type-&gt;gan_data_section__seq</title>
<path fill="none" stroke="black" stroke-width="2" d="M279.15,-239.2C310.2,-239.2 341.17,-228.84 368.96,-214.72"/>
<polygon fill="black" stroke="black" stroke-width="2" points="369.19,-218.57 376.37,-210.78 365.9,-212.39 369.19,-218.57"/>
</g>
<!-- gan_header__seq -->
<g id="node6" class="node">
<title>gan_header__seq</title>
<polygon fill="#e0ffe0" stroke="none" points="330.15,-444.8 330.15,-467.6 355.59,-467.6 355.59,-444.8 330.15,-444.8"/>
<polygon fill="none" stroke="black" points="330.15,-444.8 330.15,-467.6 355.59,-467.6 355.59,-444.8 330.15,-444.8"/>
<text xml:space="preserve" text-anchor="start" x="333.15" y="-452" font-family="Times,serif" font-size="14.00">pos</text>
<polygon fill="#e0ffe0" stroke="none" points="355.59,-444.8 355.59,-467.6 383.36,-467.6 383.36,-444.8 355.59,-444.8"/>
<polygon fill="none" stroke="black" points="355.59,-444.8 355.59,-467.6 383.36,-467.6 383.36,-444.8 355.59,-444.8"/>
<text xml:space="preserve" text-anchor="start" x="358.59" y="-452" font-family="Times,serif" font-size="14.00">size</text>
<polygon fill="#e0ffe0" stroke="none" points="383.36,-444.8 383.36,-467.6 512.36,-467.6 512.36,-444.8 383.36,-444.8"/>
<polygon fill="none" stroke="black" points="383.36,-444.8 383.36,-467.6 512.36,-467.6 512.36,-444.8 383.36,-444.8"/>
<text xml:space="preserve" text-anchor="start" x="435.81" y="-452" font-family="Times,serif" font-size="14.00">type</text>
<polygon fill="#e0ffe0" stroke="none" points="512.36,-444.8 512.36,-467.6 618.66,-467.6 618.66,-444.8 512.36,-444.8"/>
<polygon fill="none" stroke="black" points="512.36,-444.8 512.36,-467.6 618.66,-467.6 618.66,-444.8 512.36,-444.8"/>
<text xml:space="preserve" text-anchor="start" x="560.07" y="-452" font-family="Times,serif" font-size="14.00">id</text>
<polygon fill="none" stroke="black" points="330.15,-422 330.15,-444.8 355.59,-444.8 355.59,-422 330.15,-422"/>
<text xml:space="preserve" text-anchor="start" x="339.37" y="-429.2" font-family="Times,serif" font-size="14.00">0</text>
<polygon fill="none" stroke="black" points="355.59,-422 355.59,-444.8 383.36,-444.8 383.36,-422 355.59,-422"/>
<text xml:space="preserve" text-anchor="start" x="365.98" y="-429.2" font-family="Times,serif" font-size="14.00">4</text>
<polygon fill="none" stroke="black" points="383.36,-422 383.36,-444.8 512.36,-444.8 512.36,-422 383.36,-422"/>
<text xml:space="preserve" text-anchor="start" x="435.81" y="-429.2" font-family="Times,serif" font-size="14.00">u4le</text>
<polygon fill="none" stroke="black" points="512.36,-422 512.36,-444.8 618.66,-444.8 618.66,-422 512.36,-422"/>
<text xml:space="preserve" text-anchor="start" x="541.41" y="-429.2" font-family="Times,serif" font-size="14.00">magic_1</text>
<polygon fill="none" stroke="black" points="330.15,-399.2 330.15,-422 618.66,-422 618.66,-399.2 330.15,-399.2"/>
<text xml:space="preserve" text-anchor="start" x="409.08" y="-406.4" font-family="Times,serif" font-size="14.00">must be equal to 10000</text>
<polygon fill="none" stroke="black" points="330.15,-376.4 330.15,-399.2 355.59,-399.2 355.59,-376.4 330.15,-376.4"/>
<text xml:space="preserve" text-anchor="start" x="339.37" y="-383.6" font-family="Times,serif" font-size="14.00">4</text>
<polygon fill="none" stroke="black" points="355.59,-376.4 355.59,-399.2 383.36,-399.2 383.36,-376.4 355.59,-376.4"/>
<text xml:space="preserve" text-anchor="start" x="365.98" y="-383.6" font-family="Times,serif" font-size="14.00">4</text>
<polygon fill="none" stroke="black" points="383.36,-376.4 383.36,-399.2 512.36,-399.2 512.36,-376.4 383.36,-376.4"/>
<text xml:space="preserve" text-anchor="start" x="435.81" y="-383.6" font-family="Times,serif" font-size="14.00">u4le</text>
<polygon fill="none" stroke="black" points="512.36,-376.4 512.36,-399.2 618.66,-399.2 618.66,-376.4 512.36,-376.4"/>
<text xml:space="preserve" text-anchor="start" x="541.41" y="-383.6" font-family="Times,serif" font-size="14.00">magic_2</text>
<polygon fill="none" stroke="black" points="330.15,-353.6 330.15,-376.4 618.66,-376.4 618.66,-353.6 330.15,-353.6"/>
<text xml:space="preserve" text-anchor="start" x="409.08" y="-360.8" font-family="Times,serif" font-size="14.00">must be equal to 10000</text>
<polygon fill="none" stroke="black" points="330.15,-330.8 330.15,-353.6 355.59,-353.6 355.59,-330.8 330.15,-330.8"/>
<text xml:space="preserve" text-anchor="start" x="339.37" y="-338" font-family="Times,serif" font-size="14.00">8</text>
<polygon fill="none" stroke="black" points="355.59,-330.8 355.59,-353.6 383.36,-353.6 383.36,-330.8 355.59,-330.8"/>
<text xml:space="preserve" text-anchor="start" x="365.98" y="-338" font-family="Times,serif" font-size="14.00">4</text>
<polygon fill="none" stroke="black" points="383.36,-330.8 383.36,-353.6 512.36,-353.6 512.36,-330.8 383.36,-330.8"/>
<text xml:space="preserve" text-anchor="start" x="435.81" y="-338" font-family="Times,serif" font-size="14.00">u4le</text>
<polygon fill="none" stroke="black" points="512.36,-330.8 512.36,-353.6 618.66,-353.6 618.66,-330.8 512.36,-330.8"/>
<text xml:space="preserve" text-anchor="start" x="541.41" y="-338" font-family="Times,serif" font-size="14.00">magic_3</text>
<polygon fill="none" stroke="black" points="330.15,-308 330.15,-330.8 618.66,-330.8 618.66,-308 330.15,-308"/>
<text xml:space="preserve" text-anchor="start" x="409.08" y="-315.2" font-family="Times,serif" font-size="14.00">must be equal to 10100</text>
<polygon fill="none" stroke="black" points="330.15,-285.2 330.15,-308 355.59,-308 355.59,-285.2 330.15,-285.2"/>
<text xml:space="preserve" text-anchor="start" x="335.87" y="-292.4" font-family="Times,serif" font-size="14.00">12</text>
<polygon fill="none" stroke="black" points="355.59,-285.2 355.59,-308 383.36,-308 383.36,-285.2 355.59,-285.2"/>
<text xml:space="preserve" text-anchor="start" x="365.98" y="-292.4" font-family="Times,serif" font-size="14.00">4</text>
<polygon fill="none" stroke="black" points="383.36,-285.2 383.36,-308 512.36,-308 512.36,-285.2 383.36,-285.2"/>
<text xml:space="preserve" text-anchor="start" x="435.81" y="-292.4" font-family="Times,serif" font-size="14.00">u4le</text>
<polygon fill="none" stroke="black" points="512.36,-285.2 512.36,-308 618.66,-308 618.66,-285.2 512.36,-285.2"/>
<text xml:space="preserve" text-anchor="start" x="515.36" y="-292.4" font-family="Times,serif" font-size="14.00">bitmap_name_len</text>
<polygon fill="none" stroke="black" points="330.15,-262.4 330.15,-285.2 355.59,-285.2 355.59,-262.4 330.15,-262.4"/>
<text xml:space="preserve" text-anchor="start" x="335.87" y="-269.6" font-family="Times,serif" font-size="14.00">16</text>
<polygon fill="none" stroke="black" points="355.59,-262.4 355.59,-285.2 383.36,-285.2 383.36,-262.4 355.59,-262.4"/>
<text xml:space="preserve" text-anchor="start" x="364.23" y="-269.6" font-family="Times,serif" font-size="14.00">...</text>
<polygon fill="none" stroke="black" points="383.36,-262.4 383.36,-285.2 512.36,-285.2 512.36,-262.4 383.36,-262.4"/>
<text xml:space="preserve" text-anchor="start" x="386.36" y="-269.6" font-family="Times,serif" font-size="14.00">str(term=0, Shift_JIS)</text>
<polygon fill="none" stroke="black" points="512.36,-262.4 512.36,-285.2 618.66,-285.2 618.66,-262.4 512.36,-262.4"/>
<text xml:space="preserve" text-anchor="start" x="527.41" y="-269.6" font-family="Times,serif" font-size="14.00">bitmap_name</text>
</g>
<!-- gan_parser__seq&#45;&gt;gan_header__seq -->
<g id="edge1" class="edge">
<title>gan_parser__seq:gan_header_type-&gt;gan_header__seq</title>
<path fill="none" stroke="black" stroke-width="2" d="M279.15,-262C289.91,-262 300.66,-263.25 311.27,-265.47"/>
<polygon fill="black" stroke="black" stroke-width="2" points="308.79,-268.47 319.33,-267.42 310.43,-261.67 308.79,-268.47"/>
</g>
<!-- gan_data_section__seq&#45;&gt;gan_data_section__seq -->
<g id="edge4" class="edge">
<title>gan_data_section__seq:num_sets_type-&gt;gan_data_section__seq:sets__repeat</title>
<path fill="none" stroke="#404040" d="M481.95,-129.25C364.13,-133.71 180.76,-129.29 180.76,-102.8 180.76,-83.31 254.27,-75.77 333.72,-74.92"/>
<polygon fill="#404040" stroke="#404040" points="333.47,-78.42 343.45,-74.85 333.43,-71.42 333.47,-78.42"/>
</g>
<!-- animation_set__seq -->
<g id="node4" class="node">
<title>animation_set__seq</title>
<polygon fill="#e0ffe0" stroke="none" points="670.66,-149.6 670.66,-172.4 696.11,-172.4 696.11,-149.6 670.66,-149.6"/>
<polygon fill="none" stroke="black" points="670.66,-149.6 670.66,-172.4 696.11,-172.4 696.11,-149.6 670.66,-149.6"/>
<text xml:space="preserve" text-anchor="start" x="673.66" y="-156.8" font-family="Times,serif" font-size="14.00">pos</text>
<polygon fill="#e0ffe0" stroke="none" points="696.11,-149.6 696.11,-172.4 723.88,-172.4 723.88,-149.6 696.11,-149.6"/>
<polygon fill="none" stroke="black" points="696.11,-149.6 696.11,-172.4 723.88,-172.4 723.88,-149.6 696.11,-149.6"/>
<text xml:space="preserve" text-anchor="start" x="699.11" y="-156.8" font-family="Times,serif" font-size="14.00">size</text>
<polygon fill="#e0ffe0" stroke="none" points="723.88,-149.6 723.88,-172.4 825.52,-172.4 825.52,-149.6 723.88,-149.6"/>
<polygon fill="none" stroke="black" points="723.88,-149.6 723.88,-172.4 825.52,-172.4 825.52,-149.6 723.88,-149.6"/>
<text xml:space="preserve" text-anchor="start" x="762.65" y="-156.8" font-family="Times,serif" font-size="14.00">type</text>
<polygon fill="#e0ffe0" stroke="none" points="825.52,-149.6 825.52,-172.4 901.5,-172.4 901.5,-149.6 825.52,-149.6"/>
<polygon fill="none" stroke="black" points="825.52,-149.6 825.52,-172.4 901.5,-172.4 901.5,-149.6 825.52,-149.6"/>
<text xml:space="preserve" text-anchor="start" x="858.07" y="-156.8" font-family="Times,serif" font-size="14.00">id</text>
<polygon fill="none" stroke="black" points="670.66,-126.8 670.66,-149.6 696.11,-149.6 696.11,-126.8 670.66,-126.8"/>
<text xml:space="preserve" text-anchor="start" x="679.89" y="-134" font-family="Times,serif" font-size="14.00">0</text>
<polygon fill="none" stroke="black" points="696.11,-126.8 696.11,-149.6 723.88,-149.6 723.88,-126.8 696.11,-126.8"/>
<text xml:space="preserve" text-anchor="start" x="706.49" y="-134" font-family="Times,serif" font-size="14.00">4</text>
<polygon fill="none" stroke="black" points="723.88,-126.8 723.88,-149.6 825.52,-149.6 825.52,-126.8 723.88,-126.8"/>
<text xml:space="preserve" text-anchor="start" x="762.65" y="-134" font-family="Times,serif" font-size="14.00">u4le</text>
<polygon fill="none" stroke="black" points="825.52,-126.8 825.52,-149.6 901.5,-149.6 901.5,-126.8 825.52,-126.8"/>
<text xml:space="preserve" text-anchor="start" x="832.42" y="-134" font-family="Times,serif" font-size="14.00">set_marker</text>
<polygon fill="none" stroke="black" points="670.66,-104 670.66,-126.8 901.5,-126.8 901.5,-104 670.66,-104"/>
<text xml:space="preserve" text-anchor="start" x="720.76" y="-111.2" font-family="Times,serif" font-size="14.00">must be equal to 30000</text>
<polygon fill="none" stroke="black" points="670.66,-81.2 670.66,-104 696.11,-104 696.11,-81.2 670.66,-81.2"/>
<text xml:space="preserve" text-anchor="start" x="679.89" y="-88.4" font-family="Times,serif" font-size="14.00">4</text>
<polygon fill="none" stroke="black" points="696.11,-81.2 696.11,-104 723.88,-104 723.88,-81.2 696.11,-81.2"/>
<text xml:space="preserve" text-anchor="start" x="706.49" y="-88.4" font-family="Times,serif" font-size="14.00">4</text>
<polygon fill="none" stroke="black" points="723.88,-81.2 723.88,-104 825.52,-104 825.52,-81.2 723.88,-81.2"/>
<text xml:space="preserve" text-anchor="start" x="762.65" y="-88.4" font-family="Times,serif" font-size="14.00">u4le</text>
<polygon fill="none" stroke="black" points="825.52,-81.2 825.52,-104 901.5,-104 901.5,-81.2 825.52,-81.2"/>
<text xml:space="preserve" text-anchor="start" x="828.52" y="-88.4" font-family="Times,serif" font-size="14.00">num_frames</text>
<polygon fill="none" stroke="black" points="670.66,-58.4 670.66,-81.2 696.11,-81.2 696.11,-58.4 670.66,-58.4"/>
<text xml:space="preserve" text-anchor="start" x="679.89" y="-65.6" font-family="Times,serif" font-size="14.00">8</text>
<polygon fill="none" stroke="black" points="696.11,-58.4 696.11,-81.2 723.88,-81.2 723.88,-58.4 696.11,-58.4"/>
<text xml:space="preserve" text-anchor="start" x="704.74" y="-65.6" font-family="Times,serif" font-size="14.00">...</text>
<polygon fill="none" stroke="black" points="723.88,-58.4 723.88,-81.2 825.52,-81.2 825.52,-58.4 723.88,-58.4"/>
<text xml:space="preserve" text-anchor="start" x="726.88" y="-65.6" font-family="Times,serif" font-size="14.00">AnimationFrame</text>
<polygon fill="none" stroke="black" points="825.52,-58.4 825.52,-81.2 901.5,-81.2 901.5,-58.4 825.52,-58.4"/>
<text xml:space="preserve" text-anchor="start" x="844.47" y="-65.6" font-family="Times,serif" font-size="14.00">frames</text>
<polygon fill="none" stroke="black" points="670.66,-35.6 670.66,-58.4 901.5,-58.4 901.5,-35.6 670.66,-35.6"/>
<text xml:space="preserve" text-anchor="start" x="715.33" y="-42.8" font-family="Times,serif" font-size="14.00">repeat num_frames times</text>
</g>
<!-- gan_data_section__seq&#45;&gt;animation_set__seq -->
<g id="edge3" class="edge">
<title>gan_data_section__seq:sets_type-&gt;animation_set__seq</title>
<path fill="none" stroke="black" stroke-width="2" d="M605.2,-102.8C620.16,-102.8 635.81,-102.84 651.37,-102.91"/>
<polygon fill="black" stroke="black" stroke-width="2" points="649.64,-106.4 659.65,-102.95 649.67,-99.4 649.64,-106.4"/>
</g>
<!-- animation_frame__seq -->
<g id="node3" class="node">
<title>animation_frame__seq</title>
<polygon fill="#e0ffe0" stroke="none" points="978.31,-104.4 978.31,-127.2 1018.07,-127.2 1018.07,-104.4 978.31,-104.4"/>
<polygon fill="none" stroke="black" points="978.31,-104.4 978.31,-127.2 1018.07,-127.2 1018.07,-104.4 978.31,-104.4"/>
<text xml:space="preserve" text-anchor="start" x="988.47" y="-111.6" font-family="Times,serif" font-size="14.00">pos</text>
<polygon fill="#e0ffe0" stroke="none" points="1018.07,-104.4 1018.07,-127.2 1060.15,-127.2 1060.15,-104.4 1018.07,-104.4"/>
<polygon fill="none" stroke="black" points="1018.07,-104.4 1018.07,-127.2 1060.15,-127.2 1060.15,-104.4 1018.07,-104.4"/>
<text xml:space="preserve" text-anchor="start" x="1028.23" y="-111.6" font-family="Times,serif" font-size="14.00">size</text>
<polygon fill="#e0ffe0" stroke="none" points="1060.15,-104.4 1060.15,-127.2 1147.33,-127.2 1147.33,-104.4 1060.15,-104.4"/>
<polygon fill="none" stroke="black" points="1060.15,-104.4 1060.15,-127.2 1147.33,-127.2 1147.33,-104.4 1060.15,-104.4"/>
<text xml:space="preserve" text-anchor="start" x="1091.69" y="-111.6" font-family="Times,serif" font-size="14.00">type</text>
<polygon fill="#e0ffe0" stroke="none" points="1147.33,-104.4 1147.33,-127.2 1204.96,-127.2 1204.96,-104.4 1147.33,-104.4"/>
<polygon fill="none" stroke="black" points="1147.33,-104.4 1147.33,-127.2 1204.96,-127.2 1204.96,-104.4 1147.33,-104.4"/>
<text xml:space="preserve" text-anchor="start" x="1170.7" y="-111.6" font-family="Times,serif" font-size="14.00">id</text>
<polygon fill="none" stroke="black" points="978.31,-81.6 978.31,-104.4 1018.07,-104.4 1018.07,-81.6 978.31,-81.6"/>
<text xml:space="preserve" text-anchor="start" x="994.69" y="-88.8" font-family="Times,serif" font-size="14.00">0</text>
<polygon fill="none" stroke="black" points="1018.07,-81.6 1018.07,-104.4 1060.15,-104.4 1060.15,-81.6 1018.07,-81.6"/>
<text xml:space="preserve" text-anchor="start" x="1035.61" y="-88.8" font-family="Times,serif" font-size="14.00">8</text>
<polygon fill="none" stroke="black" points="1060.15,-81.6 1060.15,-104.4 1147.33,-104.4 1147.33,-81.6 1060.15,-81.6"/>
<text xml:space="preserve" text-anchor="start" x="1070.3" y="-88.8" font-family="Times,serif" font-size="14.00">FrameEntry</text>
<polygon fill="none" stroke="black" points="1147.33,-81.6 1147.33,-104.4 1204.96,-104.4 1204.96,-81.6 1147.33,-81.6"/>
<text xml:space="preserve" text-anchor="start" x="1157.48" y="-88.8" font-family="Times,serif" font-size="14.00">entries</text>
<polygon fill="none" stroke="black" points="978.31,-58.8 978.31,-81.6 1204.96,-81.6 1204.96,-58.8 978.31,-58.8"/>
<text xml:space="preserve" text-anchor="start" x="981.31" y="-66" font-family="Times,serif" font-size="14.00">repeat until _.tag == :frame_frame_end</text>
</g>
<!-- frame_entry__seq -->
<g id="node5" class="node">
<title>frame_entry__seq</title>
<polygon fill="#e0ffe0" stroke="none" points="1282.77,-127.2 1282.77,-150 1420.03,-150 1420.03,-127.2 1282.77,-127.2"/>
<polygon fill="none" stroke="black" points="1282.77,-127.2 1282.77,-150 1420.03,-150 1420.03,-127.2 1282.77,-127.2"/>
<text xml:space="preserve" text-anchor="start" x="1341.68" y="-134.4" font-family="Times,serif" font-size="14.00">pos</text>
<polygon fill="#e0ffe0" stroke="none" points="1420.03,-127.2 1420.03,-150 1559.62,-150 1559.62,-127.2 1420.03,-127.2"/>
<polygon fill="none" stroke="black" points="1420.03,-127.2 1420.03,-150 1559.62,-150 1559.62,-127.2 1420.03,-127.2"/>
<text xml:space="preserve" text-anchor="start" x="1478.94" y="-134.4" font-family="Times,serif" font-size="14.00">size</text>
<polygon fill="#e0ffe0" stroke="none" points="1559.62,-127.2 1559.62,-150 1747.81,-150 1747.81,-127.2 1559.62,-127.2"/>
<polygon fill="none" stroke="black" points="1559.62,-127.2 1559.62,-150 1747.81,-150 1747.81,-127.2 1559.62,-127.2"/>
<text xml:space="preserve" text-anchor="start" x="1641.66" y="-134.4" font-family="Times,serif" font-size="14.00">type</text>
<polygon fill="#e0ffe0" stroke="none" points="1747.81,-127.2 1747.81,-150 1895.94,-150 1895.94,-127.2 1747.81,-127.2"/>
<polygon fill="none" stroke="black" points="1747.81,-127.2 1747.81,-150 1895.94,-150 1895.94,-127.2 1747.81,-127.2"/>
<text xml:space="preserve" text-anchor="start" x="1816.43" y="-134.4" font-family="Times,serif" font-size="14.00">id</text>
<polygon fill="none" stroke="black" points="1282.77,-104.4 1282.77,-127.2 1420.03,-127.2 1420.03,-104.4 1282.77,-104.4"/>
<text xml:space="preserve" text-anchor="start" x="1347.9" y="-111.6" font-family="Times,serif" font-size="14.00">0</text>
<polygon fill="none" stroke="black" points="1420.03,-104.4 1420.03,-127.2 1559.62,-127.2 1559.62,-104.4 1420.03,-104.4"/>
<text xml:space="preserve" text-anchor="start" x="1486.33" y="-111.6" font-family="Times,serif" font-size="14.00">4</text>
<polygon fill="none" stroke="black" points="1559.62,-104.4 1559.62,-127.2 1747.81,-127.2 1747.81,-104.4 1559.62,-104.4"/>
<text xml:space="preserve" text-anchor="start" x="1618.53" y="-111.6" font-family="Times,serif" font-size="14.00">u4le→Frame</text>
<polygon fill="none" stroke="black" points="1747.81,-104.4 1747.81,-127.2 1895.94,-127.2 1895.94,-104.4 1747.81,-104.4"/>
<text xml:space="preserve" text-anchor="start" x="1813.32" y="-111.6" font-family="Times,serif" font-size="14.00">tag</text>
<polygon fill="none" stroke="black" points="1282.77,-81.6 1282.77,-104.4 1895.94,-104.4 1895.94,-81.6 1282.77,-81.6"/>
<text xml:space="preserve" text-anchor="start" x="1285.77" y="-88.8" font-family="Times,serif" font-size="14.00">must be any of :frame_pattern, :frame_x, :frame_y, :frame_time, :frame_alpha, :frame_z, :frame_frame_end</text>
<polygon fill="none" stroke="black" points="1282.77,-58.8 1282.77,-81.6 1420.03,-81.6 1420.03,-58.8 1282.77,-58.8"/>
<text xml:space="preserve" text-anchor="start" x="1347.9" y="-66" font-family="Times,serif" font-size="14.00">4</text>
<polygon fill="none" stroke="black" points="1420.03,-58.8 1420.03,-81.6 1559.62,-81.6 1559.62,-58.8 1420.03,-58.8"/>
<text xml:space="preserve" text-anchor="start" x="1486.33" y="-66" font-family="Times,serif" font-size="14.00">4</text>
<polygon fill="none" stroke="black" points="1559.62,-58.8 1559.62,-81.6 1747.81,-81.6 1747.81,-58.8 1559.62,-58.8"/>
<text xml:space="preserve" text-anchor="start" x="1642.44" y="-66" font-family="Times,serif" font-size="14.00">s4le</text>
<polygon fill="none" stroke="black" points="1747.81,-58.8 1747.81,-81.6 1895.94,-81.6 1895.94,-58.8 1747.81,-58.8"/>
<text xml:space="preserve" text-anchor="start" x="1806.71" y="-66" font-family="Times,serif" font-size="14.00">value</text>
<polygon fill="none" stroke="black" points="1282.77,-36 1282.77,-58.8 1895.94,-58.8 1895.94,-36 1282.77,-36"/>
<text xml:space="preserve" text-anchor="start" x="1513.3" y="-43.2" font-family="Times,serif" font-size="14.00">if tag != :frame_frame_end</text>
</g>
<!-- animation_frame__seq&#45;&gt;frame_entry__seq -->
<g id="edge5" class="edge">
<title>animation_frame__seq:entries_type-&gt;frame_entry__seq</title>
<path fill="none" stroke="black" stroke-width="2" d="M1205.96,-93C1224.69,-93 1243.93,-93 1263.35,-93"/>
<polygon fill="black" stroke="black" stroke-width="2" points="1261.78,-96.5 1271.78,-93 1261.78,-89.5 1261.78,-96.5"/>
</g>
<!-- animation_set__seq&#45;&gt;animation_frame__seq -->
<g id="edge7" class="edge">
<title>animation_set__seq:frames_type-&gt;animation_frame__seq</title>
<path fill="none" stroke="black" stroke-width="2" d="M902.5,-69.8C920.85,-69.8 940.13,-70.9 959.06,-72.62"/>
<polygon fill="black" stroke="black" stroke-width="2" points="957.17,-75.95 967.46,-73.44 957.85,-68.99 957.17,-75.95"/>
</g>
<!-- animation_set__seq&#45;&gt;animation_set__seq -->
<g id="edge8" class="edge">
<title>animation_set__seq:num_frames_type-&gt;animation_set__seq:frames__repeat</title>
<path fill="none" stroke="#404040" d="M825.59,-95.32C714.64,-101.18 509.89,-97.94 509.89,-69.8 509.89,-49.82 582.57,-42.39 659.44,-41.87"/>
<polygon fill="#404040" stroke="#404040" points="659.3,-45.37 669.29,-41.84 659.28,-38.37 659.3,-45.37"/>
</g>
<!-- frame_entry__seq&#45;&gt;animation_frame__seq -->
<g id="edge6" class="edge">
<title>frame_entry__seq:tag_type-&gt;animation_frame__seq:entries__repeat</title>
<path fill="none" stroke="#404040" d="M1896.94,-115.8C1913.93,-115.8 1908.11,-142.15 1895.94,-154 1698.19,-346.65 1524.35,-272.01 1274.77,-154 1235.11,-135.25 1250.56,-81.21 1217.32,-71.65"/>
<polygon fill="#404040" stroke="#404040" points="1217.82,-68.19 1207.46,-70.39 1216.93,-75.13 1217.82,-68.19"/>
</g>
<!-- frame_entry__seq&#45;&gt;frame_entry__seq -->
<g id="edge9" class="edge">
<title>frame_entry__seq:tag_type-&gt;frame_entry__seq:value__if</title>
<path fill="none" stroke="#404040" d="M1748.07,-118.35C1510.42,-124.3 1025.91,-120.16 1025.91,-81.6 1025.91,-57.92 1138.74,-47.22 1271.64,-43.87"/>
<polygon fill="#404040" stroke="#404040" points="1271.47,-47.37 1281.38,-43.64 1271.3,-40.38 1271.47,-47.37"/>
</g>
</g>
</svg>